<svg width="1157" height="358" viewBox="0 0 1157 358" fill="none" xmlns="http://www.w3.org/2000/svg">
<path d="M202.925 217.869L218 200.201H140.698L124.981 217.869H202.925Z" fill="#42EFEC"/>
<path d="M125.462 294H202.925V262.52H125.263L125.462 294Z" fill="#42EFEC"/>
<path d="M186.887 109.293L201 94.5168H124.981L108.623 109.293H186.887Z" fill="#42EFEC"/>
<path d="M108.623 64L48 109.293L48 188.701M108.623 64H186.887L201 78.4553M108.623 64L124.981 78.4553M201 78.4553V94.5168M201 78.4553H124.981M201 94.5168L186.887 109.293M201 94.5168H124.981M186.887 109.293L202.925 186.388M186.887 109.293H108.623M202.925 186.388H218V200.201M202.925 186.388H140.698M218 200.201L202.925 217.869M218 200.201H140.698M202.925 217.869H124.981M202.925 217.869V262.52M108.623 109.293L124.981 94.5168M108.623 109.293L111.894 124.712M124.981 94.5168V78.4553M120.483 165.187L124.981 186.388H140.698M120.483 165.187L48 235.858M120.483 165.187L116.325 145.592M48 235.858V294H125.462M48 235.858L48 214.018M116.325 145.592L48 214.018M116.325 145.592L111.894 124.712M48 214.018L48 188.701M111.894 124.712L48 188.701M124.981 217.869L140.698 200.201M124.981 217.869L125.263 262.52M125.462 294H202.925V262.52M125.462 294L125.263 262.52M140.698 200.201V186.388M202.925 262.52H125.263" stroke="#42EFEC" stroke-width="5.13618" stroke-linejoin="round"/>
<rect x="148.396" y="233.609" width="7.69811" height="15.419" fill="#42EFEC"/>
<rect x="143.264" y="172.576" width="7.69811" height="14.1341" fill="#42EFEC"/>
<rect x="136.208" y="233.609" width="7.69811" height="15.419" rx="3.84906" fill="#42EFEC"/>
<rect x="156.094" y="187.353" width="7.7095" height="16.6792" rx="3.85475" transform="rotate(-90 156.094 187.353)" fill="#42EFEC"/>
<rect x="175.981" y="187.353" width="7.7095" height="16.6792" rx="3.85475" transform="rotate(-90 175.981 187.353)" fill="#42EFEC"/>
<rect x="179.188" y="233.609" width="7.69811" height="15.419" fill="#42EFEC"/>
<rect x="167" y="233.609" width="7.69811" height="15.419" rx="3.84906" fill="#42EFEC"/>
<path fill-rule="evenodd" clip-rule="evenodd" d="M131.698 120.38C126.77 120.295 123.03 124.796 124.017 129.625L132.353 170.441C133.099 174.093 136.353 176.688 140.08 176.602L179.895 175.68C184.703 175.568 188.235 171.127 187.261 166.417L179.154 127.214C178.424 123.685 175.346 121.134 171.743 121.072L131.698 120.38ZM147.434 171.932C150.8 171.932 153.528 169.199 153.528 165.828C153.528 162.458 150.8 159.725 147.434 159.725C144.068 159.725 141.34 162.458 141.34 165.828C141.34 169.199 144.068 171.932 147.434 171.932Z" fill="#42EFEC"/>
<path d="M318.25 278.25C291.75 278.25 275.25 262.75 275.25 238.25C275.25 215.25 291.5 201 321.5 198.75L356.5 196V194C356.5 181.75 349 175.25 335.25 175.25C319 175.25 310.25 181.5 310.25 192.75H278.25C278.25 164.5 301.5 146 337.25 146C373.5 146 394 166.25 394 202V275H360L357.5 258.5C353.5 270 337 278.25 318.25 278.25ZM331.75 249.75C346.5 249.75 356.75 242.5 356.75 228.25V221.5L337.25 223.25C320.5 224.75 314.5 228.5 314.5 236.5C314.5 245.5 320 249.75 331.75 249.75ZM510.113 150V186.25H497.863C475.863 186.25 462.613 196 462.613 220.75V275H424.113V150.25H460.363L462.363 168.75C467.613 156.5 478.613 148.25 495.363 148.25C499.863 148.25 504.863 148.75 510.113 150ZM521.67 212C521.67 173.5 548.17 146 585.67 146C622.67 146 647.17 166.25 649.67 199H610.92C608.17 186.5 600.42 180.5 587.17 180.5C570.92 180.5 560.42 192.75 560.42 212C560.42 232 570.17 243.75 586.67 243.75C600.17 243.75 608.42 237.5 610.92 225.25H649.67C647.17 256.75 621.67 278.25 586.67 278.25C547.17 278.25 521.67 252 521.67 212ZM711.004 278.25C684.504 278.25 668.004 262.75 668.004 238.25C668.004 215.25 684.254 201 714.254 198.75L749.254 196V194C749.254 181.75 741.754 175.25 728.004 175.25C711.754 175.25 703.004 181.5 703.004 192.75H671.004C671.004 164.5 694.254 146 730.004 146C766.254 146 786.754 166.25 786.754 202V275H752.754L750.254 258.5C746.254 270 729.754 278.25 711.004 278.25ZM724.504 249.75C739.254 249.75 749.504 242.5 749.504 228.25V221.5L730.004 223.25C713.254 224.75 707.254 228.5 707.254 236.5C707.254 245.5 712.754 249.75 724.504 249.75ZM869.367 278.25C833.367 278.25 810.117 252.75 810.117 213.25C810.117 173.5 833.867 146 871.867 146C887.367 146 902.117 152.25 909.367 161.5V86.5H947.867V275H911.617L909.617 259C902.867 270.5 887.367 278.25 869.367 278.25ZM878.617 243C896.617 243 909.117 230.5 909.117 211.75C909.117 193 896.617 180.5 878.617 180.5C860.367 180.5 848.867 193.25 848.867 211.75C848.867 230.25 860.367 243 878.617 243ZM1037.28 278.25C999.529 278.25 972.529 250.75 972.529 212.25C972.529 173.25 998.779 146 1036.53 146C1075.78 146 1100.28 171.75 1100.28 212.5V222.25L1009.53 222.75C1011.78 239.25 1021.03 247 1038.03 247C1052.53 247 1062.78 241.75 1065.53 232.75H1100.78C1096.28 260.5 1071.53 278.25 1037.28 278.25ZM1036.78 177.25C1021.53 177.25 1013.03 184 1010.03 199H1062.03C1062.03 185.75 1052.28 177.25 1036.78 177.25Z" fill="white"/>
</svg>
